<svg xmlns="http://www.w3.org/2000/svg" viewBox="0 0 410.23 160.56"><defs><style>.cls-1{fill:#e6e6e6;}</style></defs><g id="Capa_2" data-name="Capa 2"><g id="Capa_4" data-name="Capa 4"><path class="cls-1" d="M76.81,70.35q1.45-2.41,3-4.76c1-1.56,2.16-3.12,3.3-4.69L123.46,4.69A7.44,7.44,0,0,1,128,1.61,24.89,24.89,0,0,1,133.23,1h23.14L140.1,107.8H114.24l9.22-62.14a42.2,42.2,0,0,1,.86-4.36q.59-2.38,1.31-4.95L86,91.46a10.86,10.86,0,0,1-4.7,3.7A16.19,16.19,0,0,1,75,96.37H71a13.58,13.58,0,0,1-6-1.25,7,7,0,0,1-3.57-3.66L38.3,36.2c-.12,1.66-.23,3.28-.32,4.84s-.22,3-.4,4.25l-9,62.51H2.5L18.77,1.1H44.54a9.16,9.16,0,0,1,2.57.33,5,5,0,0,1,2,1.06,5.51,5.51,0,0,1,1.35,2.13L73.56,60.89A86.48,86.48,0,0,1,76.81,70.35Z"/><path class="cls-1" d="M221.28,0a45.69,45.69,0,0,1,14.19,2,30.44,30.44,0,0,1,10.08,5.31,21.73,21.73,0,0,1,6.06,7.81,22.32,22.32,0,0,1,2,9.38L237.37,27a18.4,18.4,0,0,1-2.62.22,5.81,5.81,0,0,1-3.25-.77,5.25,5.25,0,0,1-1.9-2.6q-3.07-7.77-10.85-7.77a12.59,12.59,0,0,0-5.47,1.14,11.89,11.89,0,0,0-4,3,13.18,13.18,0,0,0-2.49,4.47,17,17,0,0,0-.86,5.42,17.46,17.46,0,0,0,1.22,6.16,26.7,26.7,0,0,0,4.21,7l24.59,26.31a58,58,0,0,0,7.14-17.37A6.24,6.24,0,0,1,244.83,49a5.53,5.53,0,0,1,3.93-1.25h19.17a69.28,69.28,0,0,1-6.33,20.08,72.88,72.88,0,0,1-11.48,16.86l21.61,23.08H248.22a40,40,0,0,1-5.56-.33,17.49,17.49,0,0,1-4.11-1.06,14,14,0,0,1-3.3-1.87,26.66,26.66,0,0,1-3.12-2.82L230.5,100a73.75,73.75,0,0,1-35.44,9,60.85,60.85,0,0,1-16.18-2,34.11,34.11,0,0,1-11.8-5.57,23.73,23.73,0,0,1-7.18-8.72,27.21,27.21,0,0,1-.32-21.84,33.57,33.57,0,0,1,5.83-9,43.65,43.65,0,0,1,8.86-7.48,66.27,66.27,0,0,1,11.12-5.75,33.69,33.69,0,0,1-3.57-8.83,36.07,36.07,0,0,1-1-8.32,27.08,27.08,0,0,1,2.8-12.09,30.12,30.12,0,0,1,8-10,39.58,39.58,0,0,1,12.75-6.85A52.6,52.6,0,0,1,221.28,0Zm-36,78.56a17.69,17.69,0,0,0,.81,5.5,10.42,10.42,0,0,0,2.67,4.29,12.51,12.51,0,0,0,4.84,2.78,23.13,23.13,0,0,0,7.23,1,32.73,32.73,0,0,0,9.22-1.32A37.1,37.1,0,0,0,218.75,87l-23.6-26.16q-5.6,3.89-7.73,8.35A21.69,21.69,0,0,0,185.3,78.56Z"/><path class="cls-1" d="M286.37,1h23.69a11.09,11.09,0,0,1,6.06,1.46,6.14,6.14,0,0,1,2.8,3.74l13.74,58.85q.81,3.58,1.94,8.1t1.86,9.12a87.17,87.17,0,0,1,4.34-9q2.43-4.44,4.34-8.17L375.88,6.23a8.77,8.77,0,0,1,1.53-1.91,10.65,10.65,0,0,1,2.4-1.68,14.38,14.38,0,0,1,3.07-1.17A13.39,13.39,0,0,1,386.36,1h23.87L345.5,107.8H318.74Z"/><path class="cls-1" d="M33.3,127.39a1.34,1.34,0,0,1-1,.44,1.9,1.9,0,0,1-1.1-.5,13.17,13.17,0,0,0-1.77-1.09,14.82,14.82,0,0,0-2.88-1.09,16.66,16.66,0,0,0-4.42-.5,18.8,18.8,0,0,0-5.15.64,12.33,12.33,0,0,0-3.83,1.77,7.9,7.9,0,0,0-2.41,2.6,6.35,6.35,0,0,0-.84,3.17,4,4,0,0,0,.95,2.7,8,8,0,0,0,2.49,1.87,21,21,0,0,0,3.49,1.34c1.3.38,2.64.74,4,1.1s2.72.76,4,1.19a17.52,17.52,0,0,1,3.49,1.56,8.19,8.19,0,0,1,2.49,2.24,5.42,5.42,0,0,1,.95,3.24,9.78,9.78,0,0,1-1.26,4.8,12.11,12.11,0,0,1-3.58,4,18.84,18.84,0,0,1-5.68,2.7,26.29,26.29,0,0,1-7.48,1,22.63,22.63,0,0,1-8.2-1.31A16,16,0,0,1,0,155.67l1.25-1.13a1.85,1.85,0,0,1,1.07-.37,1.4,1.4,0,0,1,.77.32l1.07.77c.42.31.91.64,1.48,1a11.11,11.11,0,0,0,2.07,1,17.05,17.05,0,0,0,2.83.78,19.67,19.67,0,0,0,3.74.31,20.68,20.68,0,0,0,5.77-.75,14.12,14.12,0,0,0,4.4-2.06,9.26,9.26,0,0,0,2.79-3.09,7.84,7.84,0,0,0,1-3.83,4,4,0,0,0-.95-2.72A7.81,7.81,0,0,0,24.77,144a18.69,18.69,0,0,0-3.49-1.29l-4-1.05c-1.37-.35-2.71-.74-4-1.16A16.18,16.18,0,0,1,9.74,139a8,8,0,0,1-2.47-2.29,5.77,5.77,0,0,1-.93-3.33,8.39,8.39,0,0,1,1.1-4.11,11.06,11.06,0,0,1,3.17-3.48,16.58,16.58,0,0,1,5.07-2.41,23.83,23.83,0,0,1,6.84-.89,21.18,21.18,0,0,1,6.79,1,14.51,14.51,0,0,1,5.05,2.88Z"/><path class="cls-1" d="M87.93,138.65a19.24,19.24,0,0,1-2.07,8.94,20.58,20.58,0,0,1-5.75,6.9,27.31,27.31,0,0,1-8.69,4.44,36,36,0,0,1-10.86,1.58,28.85,28.85,0,0,1-8.51-1.17,19.45,19.45,0,0,1-6.47-3.3,14.6,14.6,0,0,1-4.12-5.11A14.86,14.86,0,0,1,40,144.36a19.09,19.09,0,0,1,2.09-8.94,21,21,0,0,1,5.75-6.92A27.23,27.23,0,0,1,56.51,124a35.76,35.76,0,0,1,10.81-1.57,29.19,29.19,0,0,1,8.56,1.17,19.45,19.45,0,0,1,6.49,3.3,14.44,14.44,0,0,1,4.12,5.12A15,15,0,0,1,87.93,138.65Zm-3.91,0a13.87,13.87,0,0,0-1.19-5.83,12.35,12.35,0,0,0-3.44-4.42A15.78,15.78,0,0,0,74,125.64a23.66,23.66,0,0,0-7.08-1A29.25,29.25,0,0,0,57.75,126a22,22,0,0,0-7.31,3.92,18,18,0,0,0-4.84,6.18,18.5,18.5,0,0,0-1.75,8.16,13.5,13.5,0,0,0,1.22,5.82,12.37,12.37,0,0,0,3.45,4.41,16,16,0,0,0,5.39,2.8,23.55,23.55,0,0,0,7.07,1A30.07,30.07,0,0,0,70.2,157,21.8,21.8,0,0,0,77.49,153a18,18,0,0,0,4.8-6.17A18.62,18.62,0,0,0,84,138.7Z"/><path class="cls-1" d="M99.78,157.88h23.39l-.42,2.24H95.64l6.61-37.23H106Z"/><path class="cls-1" d="M150.05,158.27a21.25,21.25,0,0,0,6.49-.94,17.38,17.38,0,0,0,5.18-2.61,14.85,14.85,0,0,0,3.67-3.92,13.37,13.37,0,0,0,1.9-4.86l4.06-23h3.79l-4.1,23a15.34,15.34,0,0,1-2.33,5.74,17.65,17.65,0,0,1-4.56,4.65,22.7,22.7,0,0,1-6.47,3.1,27.15,27.15,0,0,1-8.05,1.13,24,24,0,0,1-7-.93,15.89,15.89,0,0,1-5.16-2.57,10.82,10.82,0,0,1-3.21-3.88,11,11,0,0,1-1.1-4.9,12.45,12.45,0,0,1,.23-2.34l4.06-23h3.8l-4.1,23c-.05.35-.1.7-.14,1.05s0,.7,0,1a9.73,9.73,0,0,0,.85,4.09,9,9,0,0,0,2.51,3.25,12,12,0,0,0,4.08,2.15A18.4,18.4,0,0,0,150.05,158.27Z"/><path class="cls-1" d="M221.58,122.89l-.38,2.21H203.89l-6.19,35h-3.76l6.19-35H182.74l.38-2.21Z"/><path class="cls-1" d="M228.56,160.12h-3.79l6.57-37.23h3.79Z"/><path class="cls-1" d="M292.27,138.65a19.35,19.35,0,0,1-2.06,8.94,20.61,20.61,0,0,1-5.76,6.9,27.31,27.31,0,0,1-8.69,4.44,36,36,0,0,1-10.86,1.58,28.85,28.85,0,0,1-8.51-1.17,19.54,19.54,0,0,1-6.47-3.3,14.6,14.6,0,0,1-4.12-5.11,14.86,14.86,0,0,1-1.44-6.57,19.09,19.09,0,0,1,2.09-8.94,21,21,0,0,1,5.75-6.92,27.18,27.18,0,0,1,8.66-4.46,35.69,35.69,0,0,1,10.8-1.57,29.14,29.14,0,0,1,8.56,1.17,19.45,19.45,0,0,1,6.49,3.3,14.44,14.44,0,0,1,4.12,5.12A15,15,0,0,1,292.27,138.65Zm-3.91,0a13.87,13.87,0,0,0-1.19-5.83,12.35,12.35,0,0,0-3.44-4.42,15.78,15.78,0,0,0-5.41-2.81,23.66,23.66,0,0,0-7.08-1,29.25,29.25,0,0,0-9.15,1.37,22,22,0,0,0-7.31,3.92,18,18,0,0,0-4.84,6.18,18.64,18.64,0,0,0-1.75,8.16,13.5,13.5,0,0,0,1.22,5.82,12.37,12.37,0,0,0,3.45,4.41,16,16,0,0,0,5.39,2.8,23.59,23.59,0,0,0,7.07,1,30.07,30.07,0,0,0,9.22-1.35,21.8,21.8,0,0,0,7.29-3.91,18.13,18.13,0,0,0,4.81-6.17A18.76,18.76,0,0,0,288.36,138.7Z"/><path class="cls-1" d="M309.23,123a1.37,1.37,0,0,1,.51.41l26.05,32.41c0-.24,0-.48,0-.7a3,3,0,0,1,.1-.61l5.62-31.6h3.3l-6.61,37.23h-1.74a1.7,1.7,0,0,1-1.41-.58L309,127.12l-.12,1.19-5.61,31.81H300l6.61-37.23h1.86A2.51,2.51,0,0,1,309.23,123Z"/><path class="cls-1" d="M382.56,127.39a1.34,1.34,0,0,1-1,.44,1.9,1.9,0,0,1-1.1-.5,13.63,13.63,0,0,0-1.76-1.09,15.21,15.21,0,0,0-2.89-1.09,16.66,16.66,0,0,0-4.42-.5,18.8,18.8,0,0,0-5.15.64,12.44,12.44,0,0,0-3.83,1.77,7.9,7.9,0,0,0-2.41,2.6,6.35,6.35,0,0,0-.84,3.17,4,4,0,0,0,.95,2.7,8,8,0,0,0,2.49,1.87,21,21,0,0,0,3.49,1.34c1.31.38,2.65.74,4,1.1s2.72.76,4,1.19a17.52,17.52,0,0,1,3.49,1.56,8.19,8.19,0,0,1,2.49,2.24,5.42,5.42,0,0,1,.95,3.24,9.88,9.88,0,0,1-1.25,4.8,12.14,12.14,0,0,1-3.59,4,18.84,18.84,0,0,1-5.68,2.7,26.29,26.29,0,0,1-7.48,1,22.63,22.63,0,0,1-8.2-1.31,16,16,0,0,1-5.62-3.56l1.26-1.13a1.8,1.8,0,0,1,1.06-.37,1.39,1.39,0,0,1,.78.32l1.06.77c.42.31.91.64,1.48,1a11.11,11.11,0,0,0,2.07,1,17.05,17.05,0,0,0,2.83.78,19.74,19.74,0,0,0,3.74.31,20.63,20.63,0,0,0,5.77-.75,14.12,14.12,0,0,0,4.4-2.06,9.26,9.26,0,0,0,2.79-3.09,7.84,7.84,0,0,0,1-3.83,3.94,3.94,0,0,0-1-2.72A7.88,7.88,0,0,0,374,144a18.79,18.79,0,0,0-3.5-1.29l-4-1.05c-1.37-.35-2.71-.74-4-1.16A16.62,16.62,0,0,1,359,139a8.13,8.13,0,0,1-2.47-2.29,5.77,5.77,0,0,1-.93-3.33,8.3,8.3,0,0,1,1.11-4.11,10.94,10.94,0,0,1,3.17-3.48,16.41,16.41,0,0,1,5.06-2.41,23.83,23.83,0,0,1,6.84-.89,21.14,21.14,0,0,1,6.79,1,14.42,14.42,0,0,1,5.05,2.88Z"/></g></g></svg>