<svg xmlns="http://www.w3.org/2000/svg" xmlns:xlink="http://www.w3.org/1999/xlink" viewBox="0 0 1109.94 193.75"><defs><style>.cls-1{fill:#ff4c29;}.cls-2{fill:url(#Degradado_sin_nombre_69);}.cls-3{fill:url(#Degradado_sin_nombre_69-2);}.cls-4{fill:url(#Degradado_sin_nombre_69-3);}.cls-5{fill:#e6e6e6;}.cls-6{fill:#ff1d25;}.cls-7{fill:#06f;}.cls-8{fill:#00af89;}</style><linearGradient id="Degradado_sin_nombre_69" x1="57.22" y1="24.76" x2="74.54" y2="-5.24" gradientUnits="userSpaceOnUse"><stop offset="0" stop-color="#27db9d"/><stop offset="0.5" stop-color="#0063ff"/><stop offset="0.54" stop-color="#0077ec"/><stop offset="0.59" stop-color="#0090d6"/><stop offset="0.65" stop-color="#00a3c5"/><stop offset="0.73" stop-color="#00b0b9"/><stop offset="0.82" stop-color="#00b8b2"/><stop offset="1" stop-color="#00bab0"/></linearGradient><linearGradient id="Degradado_sin_nombre_69-2" x1="42.57" y1="104.41" x2="97.59" y2="9.11" xlink:href="#Degradado_sin_nombre_69"/><linearGradient id="Degradado_sin_nombre_69-3" x1="33.24" y1="159.59" x2="84.53" y2="70.76" xlink:href="#Degradado_sin_nombre_69"/></defs><g id="Capa_2" data-name="Capa 2"><g id="Capa_4" data-name="Capa 4"><path class="cls-1" d="M85.41,164.67c-.47.64-.93,1.26-1.39,1.86,19.82,1.53,34,5.68,34,10.57,0,6.18-22.74,11.19-50.8,11.19s-50.8-5-50.8-11.19c0-4.9,14.26-9,34.12-10.57l-1.39-1.86C20.83,166.41,0,172.14,0,178.94c0,8.18,30.11,14.81,67.26,14.81s67.26-6.63,67.26-14.81C134.52,172.14,113.73,166.42,85.41,164.67Z"/><path class="cls-2" d="M67.26,20.47a40.25,40.25,0,0,1,13.6,2.23L96.26,7.3a57.6,57.6,0,0,0-29-7.3A58.57,58.57,0,0,0,38.31,7.36L53.66,22.71A40,40,0,0,1,67.26,20.47Z"/><path class="cls-3" d="M119.59,33.19A59.23,59.23,0,0,0,110,18.42a56,56,0,0,0-5.4-5.28l-19,19L70.79,46.91l-3.53,3.54-3.54-3.54L49,32.15l-19-19a53.62,53.62,0,0,0-5.4,5.26,59,59,0,0,0-9.64,14.77A64.5,64.5,0,0,0,9.1,60.33a101.61,101.61,0,0,0,3.94,27L30.29,70.12a70.18,70.18,0,0,1-.73-9.78,7.12,7.12,0,0,1,7.11-7.1,7,7,0,0,1,5,2.08L67.26,80.91,92.85,55.32a7,7,0,0,1,5-2.08A7.11,7.11,0,0,1,105,60.33a71.6,71.6,0,0,1-.73,9.77l17.25,17.25a101.6,101.6,0,0,0,3.94-27A64.5,64.5,0,0,0,119.59,33.19Z"/><path class="cls-4" d="M79.54,125.82c-1.83,3-3.77,6-5.77,9a7.75,7.75,0,0,1-12.93,0c-2-3-4-6-5.78-9-10-16.17-17.2-31.43-21.5-45.5L17,97.84a241.44,241.44,0,0,0,21,41.55c6.1,9.81,12.15,18.3,17.22,25l1.37,1.79c5.06,6.56,9,11.13,10.72,13.1,1.74-2,5.65-6.53,10.71-13.1l1.37-1.79c5.07-6.67,11.11-15.17,17.21-25a240.87,240.87,0,0,0,21-41.57L101,80.29C96.74,94.37,89.53,109.64,79.54,125.82Z"/><path class="cls-5" d="M280.5,164.67c-.48.64-.94,1.26-1.4,1.86,19.82,1.53,34,5.68,34,10.57,0,6.18-22.74,11.19-50.8,11.19s-50.8-5-50.8-11.19c0-4.9,14.27-9,34.13-10.57l-1.39-1.86c-28.37,1.74-49.2,7.47-49.2,14.27,0,8.18,30.12,14.81,67.26,14.81s67.26-6.63,67.26-14.81C329.6,172.14,308.82,166.42,280.5,164.67Z"/><path class="cls-5" d="M262.34,20.47a40.25,40.25,0,0,1,13.6,2.23L291.35,7.3a57.61,57.61,0,0,0-29-7.3,58.6,58.6,0,0,0-28.95,7.36l15.35,15.35A40,40,0,0,1,262.34,20.47Z"/><path class="cls-5" d="M314.68,33.19a59.23,59.23,0,0,0-9.63-14.77,57.18,57.18,0,0,0-5.4-5.28l-19,19L265.88,46.91l-3.54,3.54-3.53-3.54L244,32.15l-19-19a53.72,53.72,0,0,0-5.41,5.26A59.23,59.23,0,0,0,210,33.19a64.5,64.5,0,0,0-5.84,27.14,101.64,101.64,0,0,0,3.95,27l17.24-17.24a70.12,70.12,0,0,1-.72-9.78,7.11,7.11,0,0,1,7.11-7.1,7,7,0,0,1,5,2.08l25.58,25.59,25.6-25.59a7,7,0,0,1,5-2.08A7.11,7.11,0,0,1,300,60.33a70,70,0,0,1-.72,9.77l17.24,17.25a102,102,0,0,0,3.95-27A64.5,64.5,0,0,0,314.68,33.19Z"/><path class="cls-5" d="M274.62,125.82c-1.82,3-3.77,6-5.77,9a7.75,7.75,0,0,1-12.93,0c-2-3-3.94-6-5.77-9-10-16.17-17.2-31.43-21.51-45.5L212.09,97.84a241.35,241.35,0,0,0,21,41.55c6.1,9.81,12.15,18.3,17.22,25l1.37,1.79c5.06,6.56,9,11.13,10.72,13.1,1.74-2,5.66-6.53,10.72-13.1l1.37-1.79c5.06-6.67,11.11-15.17,17.21-25a241.49,241.49,0,0,0,21-41.57L296.13,80.29C291.82,94.37,284.61,109.64,274.62,125.82Z"/><path class="cls-6" d="M475.58,164.67c-.47.64-.93,1.26-1.39,1.86,19.82,1.53,34,5.68,34,10.57,0,6.18-22.75,11.19-50.8,11.19s-50.8-5-50.8-11.19c0-4.9,14.26-9,34.12-10.57l-1.39-1.86c-28.37,1.74-49.19,7.47-49.19,14.27,0,8.18,30.11,14.81,67.26,14.81s67.26-6.63,67.26-14.81C524.69,172.14,503.9,166.42,475.58,164.67Z"/><path class="cls-5" d="M457.43,20.47A40.29,40.29,0,0,1,471,22.7l15.4-15.4a57.6,57.6,0,0,0-29-7.3,58.57,58.57,0,0,0-28.95,7.36l15.35,15.35A40,40,0,0,1,457.43,20.47Z"/><path class="cls-5" d="M509.76,33.19a59.23,59.23,0,0,0-9.63-14.77,56,56,0,0,0-5.4-5.28l-19,19L461,46.91l-3.54,3.54-3.53-3.54L439.12,32.15l-19-19a53.72,53.72,0,0,0-5.41,5.26,59.23,59.23,0,0,0-9.63,14.77,64.5,64.5,0,0,0-5.83,27.14,101.61,101.61,0,0,0,3.94,27l17.25-17.24a70.18,70.18,0,0,1-.73-9.78,7.12,7.12,0,0,1,7.11-7.1,7,7,0,0,1,5,2.08l25.59,25.59L483,55.32a7.09,7.09,0,0,1,12.1,5,70,70,0,0,1-.72,9.77l17.25,17.25a102,102,0,0,0,3.94-27A64.5,64.5,0,0,0,509.76,33.19Z"/><path class="cls-5" d="M469.71,125.82c-1.83,3-3.77,6-5.77,9a7.75,7.75,0,0,1-12.93,0c-2-3-3.95-6-5.78-9-10-16.17-17.2-31.43-21.5-45.5L407.17,97.84a241.44,241.44,0,0,0,21,41.55c6.1,9.81,12.15,18.3,17.21,25,.47.61.93,1.2,1.37,1.79,5.07,6.56,9,11.13,10.73,13.1,1.74-2,5.65-6.53,10.71-13.1l1.37-1.79c5.07-6.67,11.11-15.17,17.21-25a240.87,240.87,0,0,0,21-41.57L491.21,80.29C486.91,94.37,479.7,109.64,469.71,125.82Z"/><path class="cls-6" d="M670.66,164.67c-.47.64-.93,1.26-1.39,1.86,19.82,1.53,34,5.68,34,10.57,0,6.18-22.74,11.19-50.8,11.19s-50.8-5-50.8-11.19c0-4.9,14.26-9,34.13-10.57l-1.39-1.86c-28.37,1.74-49.2,7.47-49.2,14.27,0,8.18,30.12,14.81,67.26,14.81s67.26-6.63,67.26-14.81C719.77,172.14,699,166.42,670.66,164.67Z"/><path class="cls-7" d="M652.51,20.47a40.25,40.25,0,0,1,13.6,2.23L681.52,7.3a57.64,57.64,0,0,0-29-7.3,58.6,58.6,0,0,0-29,7.36l15.35,15.35A40,40,0,0,1,652.51,20.47Z"/><path class="cls-8" d="M704.85,33.19a59,59,0,0,0-9.64-14.77,55.9,55.9,0,0,0-5.39-5.28l-19,19L656,46.91l-3.53,3.54L649,46.91,634.21,32.15l-19-19a54.7,54.7,0,0,0-5.4,5.26,59.23,59.23,0,0,0-9.63,14.77,64.5,64.5,0,0,0-5.84,27.14,101.64,101.64,0,0,0,3.95,27l17.24-17.24a70.12,70.12,0,0,1-.72-9.78,7.11,7.11,0,0,1,7.11-7.1,7,7,0,0,1,5,2.08l25.58,25.59,25.6-25.59a7,7,0,0,1,5-2.08,7.11,7.11,0,0,1,7.11,7.09,68.55,68.55,0,0,1-.73,9.77l17.25,17.25a101.6,101.6,0,0,0,3.94-27A64.34,64.34,0,0,0,704.85,33.19Z"/><path class="cls-7" d="M664.79,125.82c-1.83,3-3.77,6-5.77,9a7.75,7.75,0,0,1-12.93,0c-2-3-3.94-6-5.77-9-10-16.17-17.2-31.43-21.51-45.5L602.26,97.84a241.35,241.35,0,0,0,21,41.55c6.1,9.81,12.15,18.3,17.22,25l1.37,1.79c5.06,6.56,9,11.13,10.72,13.1,1.74-2,5.66-6.53,10.72-13.1l1.37-1.79c5.06-6.67,11.11-15.17,17.21-25a241.49,241.49,0,0,0,21-41.57L686.3,80.29C682,94.37,674.78,109.64,664.79,125.82Z"/><path class="cls-8" d="M865.75,164.67c-.47.64-.94,1.26-1.39,1.86,19.82,1.53,34,5.68,34,10.57,0,6.18-22.75,11.19-50.8,11.19s-50.81-5-50.81-11.19c0-4.9,14.27-9,34.13-10.57l-1.39-1.86c-28.37,1.74-49.19,7.47-49.19,14.27,0,8.18,30.11,14.81,67.26,14.81s67.25-6.63,67.25-14.81C914.85,172.14,894.07,166.42,865.75,164.67Z"/><path class="cls-8" d="M847.6,20.47a40.29,40.29,0,0,1,13.6,2.23L876.6,7.3a57.6,57.6,0,0,0-29-7.3,58.55,58.55,0,0,0-29,7.36L834,22.71A40,40,0,0,1,847.6,20.47Z"/><path class="cls-8" d="M899.93,33.19a59.23,59.23,0,0,0-9.63-14.77,56,56,0,0,0-5.4-5.28l-19,19L851.13,46.91l-3.54,3.54-3.53-3.54L829.29,32.15l-19-19a53.72,53.72,0,0,0-5.41,5.26,59.23,59.23,0,0,0-9.63,14.77,64.5,64.5,0,0,0-5.83,27.14,101.61,101.61,0,0,0,3.94,27l17.25-17.24a70.18,70.18,0,0,1-.73-9.78,7.12,7.12,0,0,1,7.11-7.1,7,7,0,0,1,5,2.08l25.58,25.59,25.6-25.59a7.09,7.09,0,0,1,12.1,5,70,70,0,0,1-.72,9.77l17.24,17.25a101.63,101.63,0,0,0,4-27A64.5,64.5,0,0,0,899.93,33.19Z"/><path class="cls-8" d="M859.88,125.82c-1.83,3-3.77,6-5.77,9a7.75,7.75,0,0,1-12.93,0c-2-3-3.95-6-5.78-9-10-16.17-17.2-31.43-21.5-45.5L797.34,97.84a240.73,240.73,0,0,0,21,41.55c6.1,9.81,12.14,18.3,17.21,25l1.37,1.79c5.07,6.56,9,11.13,10.73,13.1,1.73-2,5.65-6.53,10.71-13.1l1.37-1.79c5.07-6.67,11.11-15.17,17.21-25a241.58,241.58,0,0,0,21-41.57L881.38,80.29C877.08,94.37,869.87,109.64,859.88,125.82Z"/><path class="cls-7" d="M1060.83,164.67c-.47.64-.93,1.26-1.39,1.86,19.82,1.53,34,5.68,34,10.57,0,6.18-22.74,11.19-50.8,11.19s-50.8-5-50.8-11.19c0-4.9,14.26-9,34.13-10.57l-1.39-1.86c-28.37,1.74-49.2,7.47-49.2,14.27,0,8.18,30.12,14.81,67.26,14.81s67.26-6.63,67.26-14.81C1109.94,172.14,1089.16,166.42,1060.83,164.67Z"/><path class="cls-7" d="M1042.68,20.47a40.25,40.25,0,0,1,13.6,2.23l15.4-15.4a57.57,57.57,0,0,0-29-7.3,58.57,58.57,0,0,0-29,7.36l15.35,15.35A40,40,0,0,1,1042.68,20.47Z"/><path class="cls-7" d="M1095,33.19a59,59,0,0,0-9.64-14.77,54.88,54.88,0,0,0-5.4-5.28l-19,19-14.77,14.77-3.53,3.54-3.54-3.54-14.76-14.76-19-19a54.7,54.7,0,0,0-5.4,5.26,59.23,59.23,0,0,0-9.63,14.77,64.35,64.35,0,0,0-5.84,27.14,101.24,101.24,0,0,0,4,27l17.24-17.24a70.12,70.12,0,0,1-.72-9.78,7.09,7.09,0,0,1,12.11-5l25.58,25.59,25.6-25.59a7,7,0,0,1,5-2.08,7.11,7.11,0,0,1,7.11,7.09,70,70,0,0,1-.73,9.77l17.25,17.25a101.6,101.6,0,0,0,3.94-27A64.64,64.64,0,0,0,1095,33.19Z"/><path class="cls-7" d="M1055,125.82c-1.83,3-3.77,6-5.77,9a7.75,7.75,0,0,1-12.93,0c-2-3-3.94-6-5.78-9-10-16.17-17.19-31.43-21.5-45.5L992.43,97.84a241.35,241.35,0,0,0,21,41.55c6.1,9.81,12.15,18.3,17.22,25l1.37,1.79c5.06,6.56,9,11.13,10.72,13.1,1.74-2,5.66-6.53,10.72-13.1l1.37-1.79c5.06-6.67,11.1-15.17,17.21-25a241.49,241.49,0,0,0,21-41.57l-16.55-17.53C1072.16,94.37,1065,109.64,1055,125.82Z"/></g></g></svg>