<svg xmlns="http://www.w3.org/2000/svg" xmlns:xlink="http://www.w3.org/1999/xlink" viewBox="0,0,256,256" width="64px" height="64px"><defs><linearGradient x1="32" y1="5" x2="32" y2="59.134" gradientUnits="userSpaceOnUse" id="color-1"><stop offset="0" stop-color="#ff8177"></stop><stop offset="1" stop-color="#b12a5b"></stop></linearGradient><linearGradient x1="32" y1="5" x2="32" y2="59.134" gradientUnits="userSpaceOnUse" id="color-2"><stop offset="0" stop-color="#ff8177"></stop><stop offset="1" stop-color="#b12a5b"></stop></linearGradient><linearGradient x1="32" y1="20.833" x2="32" y2="42.698" gradientUnits="userSpaceOnUse" id="color-3"><stop offset="0" stop-color="#ffe9e7"></stop><stop offset="1" stop-color="#dd6e96"></stop></linearGradient></defs><g fill="none" fill-rule="nonzero" stroke="none" stroke-width="1" stroke-linecap="butt" stroke-linejoin="miter" stroke-miterlimit="10" stroke-dasharray="" stroke-dashoffset="0" font-family="none" font-weight="none" font-size="none" text-anchor="none" style="mix-blend-mode: normal"><g transform="scale(4,4)"><path d="M32,58c-14.337,0 -26,-11.663 -26,-26c0,-14.337 11.663,-26 26,-26c14.337,0 26,11.663 26,26c0,14.337 -11.663,26 -26,26zM32,8c-13.233,0 -24,10.767 -24,24c0,13.233 10.767,24 24,24c13.233,0 24,-10.767 24,-24c0,-13.233 -10.767,-24 -24,-24z" fill="url(#color-1)"></path><path d="M32,52c-11.028,0 -20,-8.972 -20,-20c0,-11.028 8.972,-20 20,-20c11.028,0 20,8.972 20,20c0,11.028 -8.972,20 -20,20zM32,14c-9.925,0 -18,8.075 -18,18c0,9.925 8.075,18 18,18c9.925,0 18,-8.075 18,-18c0,-9.925 -8.075,-18 -18,-18z" fill="url(#color-2)"></path><path d="M40.692,24.724l-1.417,-1.417c-0.41,-0.41 -1.076,-0.41 -1.486,0l-5.789,5.79l-5.789,-5.789c-0.41,-0.41 -1.076,-0.41 -1.486,0l-1.417,1.417c-0.41,0.41 -0.41,1.076 0,1.486l5.789,5.789l-5.789,5.789c-0.41,0.41 -0.41,1.076 0,1.486l1.417,1.417c0.41,0.41 1.076,0.41 1.486,0l5.789,-5.789l5.789,5.789c0.41,0.41 1.076,0.41 1.486,0l1.417,-1.417c0.41,-0.41 0.41,-1.076 0,-1.486l-5.789,-5.789l5.789,-5.789c0.411,-0.411 0.411,-1.076 0,-1.487z" fill="url(#color-3)"></path></g></g></svg>