<svg xmlns="http://www.w3.org/2000/svg" viewBox="0 0 134.52 193.75"><defs><style>.cls-1{fill:#ff1d25;}.cls-2{fill:#06f;}.cls-3{fill:#00af89;}</style></defs><g id="Capa_2" data-name="Capa 2"><g id="Capa_4" data-name="Capa 4"><path class="cls-1" d="M85.41,164.67c-.47.64-.93,1.26-1.39,1.86,19.82,1.53,34,5.68,34,10.57,0,6.18-22.74,11.19-50.8,11.19s-50.8-5-50.8-11.19c0-4.9,14.26-9,34.12-10.57l-1.39-1.86C20.83,166.41,0,172.14,0,178.94c0,8.18,30.11,14.81,67.26,14.81s67.26-6.63,67.26-14.81C134.52,172.14,113.73,166.42,85.41,164.67Z"/><path class="cls-2" d="M67.26,20.47a40.25,40.25,0,0,1,13.6,2.23L96.26,7.3a57.6,57.6,0,0,0-29-7.3A58.57,58.57,0,0,0,38.31,7.36L53.66,22.71A40,40,0,0,1,67.26,20.47Z"/><path class="cls-3" d="M119.59,33.19A59.23,59.23,0,0,0,110,18.42a56,56,0,0,0-5.4-5.28l-19,19L70.79,46.91l-3.53,3.54-3.54-3.54L49,32.15l-19-19a53.62,53.62,0,0,0-5.4,5.26,59,59,0,0,0-9.64,14.77A64.5,64.5,0,0,0,9.1,60.33a101.61,101.61,0,0,0,3.94,27L30.29,70.12a70.18,70.18,0,0,1-.73-9.78,7.12,7.12,0,0,1,7.11-7.1,7,7,0,0,1,5,2.08L67.26,80.91,92.85,55.32a7,7,0,0,1,5-2.08A7.11,7.11,0,0,1,105,60.33a71.6,71.6,0,0,1-.73,9.77l17.25,17.25a101.6,101.6,0,0,0,3.94-27A64.5,64.5,0,0,0,119.59,33.19Z"/><path class="cls-2" d="M79.54,125.82c-1.83,3-3.77,6-5.77,9a7.75,7.75,0,0,1-12.93,0c-2-3-4-6-5.78-9-10-16.17-17.2-31.43-21.5-45.5L17,97.84a241.44,241.44,0,0,0,21,41.55c6.1,9.81,12.15,18.3,17.22,25l1.37,1.79c5.06,6.56,9,11.13,10.72,13.1,1.74-2,5.65-6.53,10.71-13.1l1.37-1.79c5.07-6.67,11.11-15.17,17.21-25a240.87,240.87,0,0,0,21-41.57L101,80.29C96.74,94.37,89.53,109.64,79.54,125.82Z"/></g></g></svg>